<svg xmlns="http://www.w3.org/2000/svg" width="853.5" height="401.8" viewBox="0 0 853.5 401.8"><path fill="#F8FCFB" d="M633.6 339.5c-.1 0 0 .2-.1.3-.3.2-.6-.1-.9.2-1 1.1-2 2.2-3 3.1-1.1 1-2.2 2-3.3 2.8-1.3.9-2.5 1.8-3.7 2.3-1.5.6-3 .7-4.3.7-1.9 0-3.6-.4-4.2-1.4-.7-1.2-.3-3.2 1-5.3.2-.4.2-.7.7-.8 1.1.4 2.4 1 3.8 1 1.2 0 2.6-.1 3.9-.5 1.2-.3 2.1-1.5 3.2-2.2 1-.6 2.2-1.2 3.1-2.2.8-.9 1.6-1.9 2.3-3 .4-.7.3-.8.7-1.6.7-1.2 1.5-2.2 1.6-3.3.2-1.3 0-2.6-.6-3.7-.6-1-1.7-1.5-2.8-2-1-.5-2.1-.5-3.3-.5-1.7 0-3.3-.3-4.8.3-1.5.5-2.7 1.7-3.9 2.8-1.1 1-2.5 2-3.4 3.4-1 1.6-1.1 1.6-2.1 3.2s-.5 1.9-1.5 3.6c-1 1.6-1.2 1.5-2.3 3.1-.1.2-.4 0-.6.2-1.2 1.3-2.1 2.7-3.2 3.7-1.4 1.3-2.8 2.1-3.9 3-1.8 1.4-3.1 2.1-4.2 2.1-.4 0-.7 0-.9-.4-.3-.5-.6-1.3.1-2.4 1.1-1.9 1.1-1.9 2.3-3.7 1.1-1.9 1.7-1.5 2.8-3.4s1-2 2.1-3.9l2.2-3.8c1.3-2.2 1.7-4.5.8-6.1-.8-1.4-2.6-1.9-4.5-1.9-1.3 0-2.7-.1-4.1.5-1.1.5-2.3 1.3-3.5 2.3-1 .8-1.9 2.1-2.9 3.3.4-1.5.7-3.2 0-4.3-.8-1.3-2.6-2-4.4-2-1.1 0-2.3.1-3.5.6-1 .4-1.8 1.3-2.8 2.1-.9.7-1.7 1.4-2.6 2.3 1.1-2.2 2.7-1.9 2.2-4.4-.3-1.7-1.5.2-3.3.2s-2-1.1-3.4-.1c-2.1 1.6-1.7 2-3 4.3s-1.3 2.3-2.7 4.5c-.1.1 0 .2-.1.3-1.1 1.2-2.5 2.2-4 3-1.5.7-2.9 1.1-4.6 1.3.7-1.2 1.3-2.1 1.7-3.3.4-1.3.6-2.8.6-4 0-1.4-.6-2.8-1.2-3.9-.6-1-1.7-2.2-3.5-2.9-1.2-.5-2.7-.8-4.5-.8s-3.2.8-4.5 1.5c-1.5.8-2.8 1.8-3.6 3.1-1 1.5-1.7 3.1-1.7 4.6 0 .4.2.7.2 1.1-.9.2-1.3-.6-2 0-1.5 1.4-1 1.9-2.1 3.7s-.7 2-1.8 3.7c-.2.3-.2.3-.5.6-1 1.1-2.1 2.2-3.3 3.2s-2.6 1.9-3.8 2.8c.3-1.1 1-2.4 1.2-3.6s.1-2.4.3-3.7c.2-1.5.2-3.2.5-4.8.3-1.6.9-3.1 1.4-4.7.5-1.5.9-3.2 1.6-4.6.1-.1.6-.2.5-.3-2.5-1.4-2.7-.9-5.3-2.1-.1 0 0-.3-.1-.2-.5.6-1 1.4-1.6 2.3-.7.9-1.3 2.1-2.2 3.2-.7 1-1.5 2.1-2.3 3.1s-1.7 2-2.5 3-2.1 1.6-2.9 2.6c-.8 1-1.6 2.1-2.4 3-.2.2 0 .5-.2.7-1 1.1-2.2 2-3.2 2.9-1.1 1-2.3 1.8-3.4 2.6-1.3.9-2.3 2-3.6 2.5-1.5.6-3 .6-4.3.6-1.9 0-3.6-.3-4.2-1.4-.7-1.2.2-2.9 1.5-5 .2-.4-.3-.9.2-1.1 1.1.4 2.4.7 3.8.7 1.2 0 2.5-.1 3.8-.5 1.2-.3 2.3-1 3.4-1.7 1-.6 1.9-1.6 2.8-2.6.8-.9 1.7-1.7 2.5-2.9.4-.7.4-.8.8-1.5.7-1.2 1.4-2.2 1.5-3.3.2-1.3-.1-2.5-.7-3.5s-1.5-1.6-2.6-2.2c-1-.5-2.1-.7-3.3-.7-1.7 0-3.3 0-4.7.6-1.5.5-2.8 1.5-4 2.6-1.1 1-2.1 2.3-3 3.7-1 1.6-1.2 1.5-2.2 3.2-1 1.6-1.2 1.5-2.2 3.2-1 1.6-.7 1.8-1.8 3.4-.1.2-.1.3-.2.5-1.2 1.3-2.9 1.9-4.3 2.6-1.6.8-3.3 1.6-4.9 1.7.9-1.2 1.8-2.6 2.7-4 .8-1.2 1.5-2.6 2.3-4 .7-1.3 1.3-2.7 1.9-4.2.6-1.4 1.6-2.6 2.2-4.1.5-1.4.7-3 1.2-4.5.1-.2.5-.2.3-.2-2.3-.2-2.3.2-4.5.3-.1 0 .2-.1.2 0-.6 1.5-1.5 2.8-2.2 4.2-.6 1.5-.9 3-1.6 4.4s-1.8 2.6-2.6 3.9c-.8 1.4-1.4 2.9-2.3 4.1-.5-.2-1-.6-1.5-.6-2.2 0-4.2 1.9-4.2 4 0 .8.3 1.4.7 1.9-2.1 2-3.8 3.5-5.2 3.5-.4 0-1-.3-1.2-.7-.3-.5.3-1.2 1-2.3 1.1-1.9.9-2 2.1-3.9 1.1-1.9 1-1.9 2.2-3.8 1.1-1.9 1.2-1.8 2.3-3.7 1.1-1.9 1-1.9 2.2-3.8 1.1-1.9.9-2 2.1-3.9s3.2-1.5 2.6-3.6c-.5-1.6-1.7 0-3.4 0s-2-.9-3.4 0c-1.7 1-.9 1.8-2 3.4-1 1.7-1.4 1.5-2.4 3.2s-.6 2-1.6 3.7-.9 1.8-2 3.4c-1 1.7-1.1 1.7-2.1 3.4-.9 1.4-1.9 2.5-2.8 3.6-1.1 1.3-2.3 2.2-3.4 3-1.5 1.1-2.9 1.8-4.1 1.8-.4 0-1-.1-1.2-.5-.3-.5 0-1.4.7-2.5 1.1-1.9 1-2 2.1-3.8 1.1-1.9 1.5-1.7 2.6-3.5 1.1-1.9 1-2 2.1-3.8 1.1-1.9 1.2-1.9 2.3-3.7 1.1-1.9 1.2-1.9 2.3-3.7 1.1-1.9 3-1.8 2.4-3.9-.5-1.6-1.9-.1-3.6-.1s-2-.8-3.4.1c-1.9 1.3-1.5 1.9-2.7 3.9l-2.4 4c-1.2 2-.8 2.3-2 4.3s-1.6 1.8-2.9 3.7c-.2.3 0 .4-.2.7-1 1.1-1.8 2.4-2.8 3.3-1.2 1.2-2.2 2.2-3.1 3-1.8 1.5-3.3 2.3-3.8 2.3-.3 0-.2-.4-.3-.4-.2-.3.3-1.4.6-2.2.7-1.9.2-2.1.9-4s1.2-1.7 1.9-3.6c.7-1.9.5-2 1.2-3.9s.5-2 1.1-3.9c.7-1.9 1.1-1.7 1.8-3.6.7-1.9.1-2.1.8-4 .7-1.9 1.2-1.7 1.9-3.6.7-1.9.8-1.9 1.5-3.8s.3-2 1-3.9c0-.1.1-.1 0-.2s.1-.3-.1-.4c-1.4-.4-2.8.2-4.2.5-1.3.3-2.8.3-4.1 1.2-1.1.7-2 1.9-3.1 2.9-1 .9-2.2 1.7-3.2 2.8-.9 1-1.9 2.1-2.8 3.2s-1.7 2.2-2.6 3.3c-.9 1.1-1.6 2.3-2.5 3.4s-1.8 2.3-2.7 3.4c-.9 1.1-1.8 2.3-2.7 3.4-1 1.1-2 2.2-3 3.2-1 1.1-2 2.2-3.1 3.1-1.1 1-2.5 1.6-3.7 2.4-1.3.9-2.3 1.9-3.6 2.4-1.4.6-2.8.9-4.2 1l-.1.2c-1.8 0-3.3-.8-4.6-1.5-1.5-.7-2.8-1.5-3.6-3-.7-1.2-.9-2.6-1-4 0-1.3-.3-2.9.1-4.3.4-1.3 1.6-2.3 2.4-3.6.8-1.3 1.4-2.8 2.5-3.8 1.2-1.1 2.4-2.1 3.7-2.6 1.4-.6 3-.5 4.5-.4 1.4.1 2.6.7 3.7 1.5s2.3 1.5 2.9 2.9c0 .1-.2.4-.1.3 2.8-.9 2.8-.8 5.5-1.9.1-.1.1-.3 0-.4-.7-1.5-1.6-3-2.7-4.1s-2.8-1.6-4.3-2.3c-1.4-.6-2.9-.9-4.6-1-1.3-.1-2.7-.5-4-.3s-2.5.9-3.7 1.4-2.2 1.4-3.3 2.1c-1.1.7-2.2 1.4-3.1 2.3s-1.4 2.1-2.1 3.3c-.8 1.4-1.7 2.6-2.2 4-.5 1.5-.9 3-1 4.5-.2 1.6-.3 3.1 0 4.6s.8 3 1.6 4.3c.7 1.2 1.5 2.3 2.4 3.2 1 .9 2.1 1.6 3.4 2.3 1.2.6 2.5 1.1 3.8 1.3 1.3.3 2.6.6 4 .6 1.5 0 3.1-.4 4.5-.8s2.7-1.3 4-2 2.6-1.4 3.8-2.4c1.2-.9 2.3-1.8 3.4-2.9 1.1-1 2.4-1.9 3.4-3.1 1-1.1 1.7-2.7 2.6-3.9 1.9-.5 2 .4 4 .4s3.6-2.1 4.3-.3c.9 2.9-1.6 2.8-2.7 5.7-.5 1.3-.5 2.6-.6 3.7-.1 1.5.1 2.7.8 3.6.7 1.1 2 1.8 3.7 1.8 1.4 0 3-.7 4.4-1.5 1.2-.7 2.5-1.7 3.7-2.8.1.6.5.9.8 1.4.9 1.6 2.4 3 4.8 3 1.3 0 2.8-.7 4.4-1.5 1.3-.6 2.6-1.1 3.9-2.1.3 1.2 1.2 1.7 2.3 2.3.9.5 2 1.2 3.4 1.2 1.5 0 2.8-.8 4.2-1.2 1.3-.4 2.6-1 3.8-1.8 1.2-.7 2.6-1.1 3.7-2.2.7.1 1.2.1 2 .1 1.2 0 2.6-.6 4.1-1 1.3-.4 2.5-.5 3.8-1.2 0 1.3.4 2.1 1 3.2.7 1.3 1.7 2.6 3.2 3.3 1.3.6 2.9.4 4.6.4 1.5 0 3 0 4.5-.4s2.7-1.2 4.1-1.9c1.4-.7 2.6-1.5 3.8-2.4 1.3-.9 2.8-1.5 3.8-2.5 1.2-1.1 2.3-2.3 3.1-3.3l-.1-.1c.1-.1.1-.1.1-.2.9-1 1.5-2.1 2.3-3.1.9-1 1.9-1.8 2.7-2.8.9-1.1 1.6-2.2 2.3-3.1.2-.3.7-.4.9-.6-.5 1.8-1.2 3.8-1.5 5.9-.2 1.4-.5 2.7-.7 3.9-.3 1.5-.4 2.9-1 3.9-.7 1.2-1.8 1.9-3.3 1.9-1.9 0-2.7-1.9-2.7-1.9 0-.1-.1-.6-.2-.5-2.2.9-2 1.4-4.1 2.5-.1 0-.1 0-.1.1 0 0 .5 2.4 2.6 3.9 1 .7 2.6 1.3 4.5 1.3.6 0 1.1.1 1.6.1.1 0 0-.7.1-.7s.2.6.3.6c1.5-.2 2.9-1.2 4.3-1.8 1.4-.6 2.8-1.2 4.1-2s2.8-1.5 3.9-2.5c0 1.3.2 2.7.9 3.6.7 1 1.7 1.8 2.9 2.3 1 .4 2.3.5 3.6.5 1.1 0 2.5 0 3.8-.5 1.1-.4 2.1-1.3 3.2-2 1-.7 2.1-1.3 3.1-2.2.8-.9 1.6-1.9 2.3-3 1.4-2.3.8-2.7 2.6-4.7 1.2 0 2.5.1 3.7-.1s2.3-.6 3.4-1c-.5 1.8-1.1 1.5-2 3.1-1 1.6-.9 1.6-1.9 3.2s-1.1 1.5-2 3.1-2.4 1.5-1.6 3.2c.7 1.6 1.5-.1 3.3-.1s1.9 1 3.3 0c1.9-1.3 1.1-2 2.4-4 1.2-2 1.6-1.8 2.8-3.8s1-2.2 2.2-4.2c.8-1.1 1.7-2.1 2.5-3 .9-1.1 1.7-2.1 2.5-3 1-1.1 1.8-2 2.7-2.8 1.1-1.1 2.2-1.7 3.1-2.3 1.8-1.2 3-1.6 3.5-1.2.5.3.2 1.4-.6 2.7-1.1 1.8-.8 2-1.9 3.8-1.1 1.8-1.2 1.8-2.3 3.6-1.1 1.8-1.3 1.7-2.4 3.5l-2.2 3.6-2.2 3.6c-1.1 1.8-3 1.8-2.3 3.8.6 1.6 2-.2 3.8-.2s2 1 3.4.1c1.9-1.3 1-2 2.2-4s1.3-1.9 2.5-3.8c1.2-2 1.3-1.9 2.5-3.8.8-1.1 1.6-2.2 2.4-3.1.9-1.1 1.9-2 2.7-2.9 1-1.1 1.5-2.4 2.4-3.2 1.2-1.1 2.5-1.6 3.3-2.1 1.9-1.3 2.8-1.4 3.3-1.1s.4 1.1-.4 2.4c-1 1.7-1 1.7-2.1 3.3-1 1.7-.7 1.9-1.7 3.6l-2 3.4c-1 1.7-1.5 1.4-2.5 3-.6 1.1-.6 2.3-.8 3.3-.2 1.2.1 2.1.6 3.1.9 1.6 2.5 2.6 4.9 2.6 1.3 0 2.7-.4 4.2-1.1 1.2-.5 2.5-1.3 3.8-2.2 1.1-.8 2.4-1.4 3.6-2.4.1.8.3 1.3.7 2 .7 1.3 2 2.1 3.5 2.7 1.3.6 2.7 1.3 4.4 1.3 1.5 0 3-.6 4.5-1.1 1.5-.4 3-.7 4.3-1.5 1.4-.7 2.5-1.8 3.7-2.7 1.3-.9 2.8-1.6 3.9-2.5 1.3-1.2 2-2.6 2.9-3.6.1-.1.5.1.5 0s-.6 0-.7 0c0-1.1-.8-2.4-1.7-2.8zm-15.5-1.4c.4-1.8.6-1.8 1.6-3.4s1.4-1.3 2.4-2.9c.8-1.3 1.6-2.2 2.5-2.8 1.5-1 2.7-1.3 3.5-.9 1.1.6 1.1 2.5-.2 4.6-.4.7-.7.6-1.2 1.3-1.2 1.9-2.2 3.3-3.5 3.9-2 1.1-4 .6-5.1.2zm-62.9-3.8c-.7 1.1 0 1.7-1.1 2.4-1.3-.5-2.2-1.6-2.9-2.5-.7-1-1.1-2-1.1-3.3 0-1.2.3-2.4 1.1-3.2.6-.6 1.4-1.2 2.2-1.2 0 0 0 .3.1.3 1.2 0 2.5.3 3 1.3.5.9.5 2.2.3 3.3-.2 1.1-1 2-1.6 2.9zm-11.6 14.3c-1 0-2.5-.4-2.5-1.9 0-.9.8-1.7 1.5-2.8 1-1.7 1-1.7 1.9-3.3s.2-2.4 1.8-3.4c1.3 1.3 3.4 2.3 5.6 3 .2 1.6-1.1 1.4-2 2.8s-.5 1.6-1.4 3c-1.2 2-3.5 2.6-4.9 2.6zm-42-10.5c.4-1.8.6-1.8 1.6-3.4s1.4-1.3 2.4-2.9c.8-1.3 1.6-2.2 2.5-2.8 1.5-1 2.7-1.3 3.5-.9 1.1.6 1.1 2.5-.2 4.6-.4.7-.7.6-1.2 1.3-1.2 1.9-2.2 3.3-3.5 3.9-2.1 1.1-4 .6-5.1.2zm-54.5-18.4c-.3 2.1-.3 2.1-1.1 4-.7 1.9-1.2 1.8-1.9 3.7-.7 1.9-.7 2-1.4 3.9s.3 2.6-1.3 3.9c-1.3 1-1.6.3-3.2.3s-1.8.6-3.2-.3c1.1-1.4 1.8-2.9 2.8-4.3l3-3.9c1-1.3 2.1-2.5 3.1-3.7 1.1-1.3 2.1-2.5 3.2-3.6zM659 358.4c1.3 0 2.6-.2 3.8-.5s2.4-.8 3.5-1.5c1-.7 1.9-1.5 2.8-2.6 1.3.7 2.6 1.4 4 2 1.3.6 2.7 1 4.3 1.4 1.4.3 2.8.5 4.5.5 1.3 0 2.7-.1 4-.4s2.6-.7 3.8-1.2 2.4-1.1 3.5-1.9c1.1-.7 2.2-1.5 3.2-2.4s1.8-1.9 2.7-2.9c.8-1 1.6-2.1 2.3-3.2s1.3-2.3 1.9-3.5c.5-1.2 1-2.5 1.3-3.7.4-1.3.6-2.6.8-3.9s.3-2.6.3-3.9c0-1.7-.2-3.3-.5-4.8-.4-1.6-.8-3.2-1.6-4.6s-1.7-2.7-2.9-3.9c-1-1-2.2-2-3.4-2.8-1.2-.7-2.6-1.3-4-1.8-1.3-.4-2.8-.7-4.3-.9-1.4-.2-2.9-.2-4.4-.2-1.3 0-2.7 0-4 .3-1.3.2-2.6.6-3.9 1.1-1.3.4-2.5.9-3.7 1.6s-2.2 1.5-3.3 2.4c-1 .9-1.9 1.9-2.6 3.1-.7 1.1-1.3 2.3-1.8 3.6-.6 1.5-.9 3-1 4.5 0 1.6.3 3.1.8 4.5.6 1.4 1.5 2.7 2.7 3.7.1.1 0 .2.1.1 2-1.6 2.1-1.5 4-3.3.1-.1-.1-.1-.1-.2-1-1.2-1.5-2.6-1.6-4.2-.1-1.4.1-2.9.8-4.4.6-1.3 1.4-2.5 2.4-3.4 1-1 2.2-1.8 3.4-2.4 1.3-.6 2.6-1.1 4-1.4s2.9-.5 4.2-.5c.1 0 .3-.1.4-.1l.1.1c-1.1 1.8-1.2 1.8-2.3 3.6-1.1 1.8-1 1.9-2.1 3.7-1.1 1.8-1.2 1.8-2.3 3.6l-2.2 3.6c-1.1 1.8-1.1 1.8-2.2 3.7-1.1 1.8-1.1 1.9-2.2 3.7-1.1 1.8-1.1 1.8-2.2 3.7-1.1 1.8-1.1 1.9-2.2 3.7-.3.5-.1.7-.6.9-.9-.4-2-.9-3.3-1.2-1.1-.3-2.2-.4-3.5-.4-1.6 0-2.9.2-4.1.6-1.5.5-2.6 1.3-3.5 2.3-1 1.1-1.4 2.5-1.4 3.9 0 1.2.3 2.5 1.2 3.5.7.9 1.7 1.7 3.1 2.2.6.3 1.9.5 3.3.5zm.5-8.1c1.6 0 3.1.3 4.9 1-1 1.3-2.2 2-4.6 2-1.9 0-2.7-.7-2.7-1.5-.1-.7.7-1.5 2.4-1.5zm12.5-.7c.4-2 1.1-1.8 2.1-3.6 1.1-1.8 1.2-1.7 2.2-3.5s1.1-1.8 2.1-3.5c1.1-1.8 1-1.8 2.1-3.6s1.1-1.8 2.1-3.5c1.1-1.8 1.1-1.8 2.1-3.5 1.1-1.8 1.1-1.8 2.2-3.5 1.1-1.8 1-1.8 2.1-3.6s.6-2.2 2.1-3.6c1.3.5 2.5 1.2 3.5 1.9 1 .8 2 1.8 2.7 2.9s1.2 2.3 1.5 3.6c.3 1.2.4 2.5.4 3.9 0 1.3-.1 2.6-.3 3.9-.2 1.5-.6 2.9-1.1 4.4-.5 1.4-1.2 2.8-1.9 4.1-.8 1.3-1.6 2.6-2.6 3.7-1 1.2-2.1 2.2-3.3 3.1s-2.5 1.7-3.9 2.3c-1.4.5-2.9.8-4.4.8-1.9 0-3.5-.3-5.1-.8-1.7-.4-3.2-1.1-4.6-1.9zM767.8 321c2.2 0 3.9-1.6 3.9-3.7s-1.7-3.7-3.9-3.7-3.8 1.6-3.8 3.7c0 2.2 1.6 3.7 3.8 3.7zM847.6 342c0-.1 0-.2-.1-.3-.4-1-1.7-1.8-2.7-2.1-.1 0-.1-.2-.2-.1-.3.2-.1.4-.4.7-1 1.1-2.2 2.1-3.3 3.1-1.2 1-2.4 2-3.7 2.9.3-1.1.7-2.4.9-3.7.2-1.2.5-2.3.7-3.6.2-1.5.4-3.2.7-4.8.3-1.6.6-3.2 1.1-4.7s1.1-3 1.8-4.5c.1-.1.3-.2.2-.3-2.5-1.4-2.6-1.2-5.2-2.4-.1 0-.1-.2-.2-.1-.5.6-.9 1.4-1.6 2.3-.7.9-1.5 2-2.3 3.1-.7 1-1.7 1.9-2.5 3-.8 1-1.5 2.1-2.3 3.1s-1.7 1.9-2.6 2.9c-.8 1-1.6 2.1-2.4 3l-.5.5c-1.2 1.3-2.2 2.7-3.2 3.7-1.4 1.3-2.7 2.2-3.8 3.1-1.8 1.4-3.2 1.9-4.3 1.9-.4 0-.8.1-1.1-.3-.3-.5-.2-1.3.5-2.4 1.1-1.9 1-1.9 2.1-3.8s1.3-1.8 2.4-3.6c1.1-1.9 1.2-1.8 2.3-3.7 1.1-1.9.9-2 2-3.9 1.3-2.2 1.6-4.1.7-5.7-.8-1.4-2.3-2.3-4.1-2.3-1.3 0-2.7.4-4 1-1.1.5-2.2 1.3-3.4 2.3.4-1.5 2.6-1.5 1.7-2.8-.9-1.4-1.8.1-3.5.1s-2.1-1.1-3.5-.1c-1.9 1.3-1.3 2-2.5 4.1-1.2 2-1.2 2-2.5 4-1.2 2-1 2.2-2.2 4.2s-1.5 1.9-2.7 3.9c-.2.3-.2.2-.4.4-1.1 1.2-2.1 2.2-3 3.2-1.1 1.1-2.2 2.1-3.2 3-1.2 1-2.2 2.1-3.4 2.9-1.3.8-2.7 1.4-4 2 .7-2.1 1.3-1.8 2.5-3.6 1.1-1.9 1.1-1.9 2.3-3.7 1.1-1.9 1-2 2.2-3.8 1.1-1.9 1.1-1.9 2.3-3.7 1.2-1.9 1.2-1.9 2.3-3.7 1.2-1.9 3.3-1.7 2.4-3.7-.7-1.8-2.2 1-4 .2-.1-1.7-1-3.2-2.3-4.2-1.4-1-3-1.9-4.4-1.9-1.3 0-2.8.4-4.4 1.1-1.3.6-2.4 1.6-3.6 2.6-1.1 1-1.9 2.1-2.8 3.5-1 1.6-1.3 1.5-2.2 3.1-1 1.6-1 1.6-2 3.3-1 1.6-.9 1.7-1.9 3.3-.2.3-.2.3-.5.5-1.2 1.3-2.5 2.4-3.5 3.4-1.4 1.3-2.4 2.6-3.5 3.5-1.8 1.4-3.4 2.1-4.5 2.1-.4 0-.8-.3-1-.7-.3-.5-.3-1.3.4-2.4 1.1-1.9 1.2-1.8 2.3-3.7l2.2-3.8c1.1-1.9 1.5-1.7 2.6-3.6s1-2 2.1-3.8c1.1-1.9 1.1-1.9 2.3-3.8 1.1-1.9 3-1.7 2.4-3.8-.5-1.6-1.9-.1-3.6-.1s-2-.8-3.4.1c-1.9 1.3-1.2 2-2.4 4.1l-2.4 4c-1.2 2-1.3 2-2.6 4-1.2 2-1 2.2-2.2 4.2-.2.3-.3.2-.5.5-1 1.1-2.2 2.1-3.3 3.1-1.2 1-2.3 1.9-3.5 2.8.3-1.1.8-2.2 1-3.4l.6-3.6c.2-1.5.3-3.2.6-4.8.3-1.6.8-3.1 1.3-4.7.5-1.5.8-3.2 1.5-4.6.1-.1.5-.2.4-.3-2.5-1.4-2.6-1.3-5.1-2.5-.1 0 0 .2-.1.3-.5.6-1.1 1.3-1.8 2.2-.7.9-1.6 1.9-2.5 3-.7 1-1.5 2-2.4 3.1-.8 1-1.6 2-2.5 3-.8 1-1.4 2.2-2.2 3.2s-1.9 1.8-2.7 2.8c-.2.2-.1.4-.3.6-1 1.1-2.1 2.1-3.1 3-1.1 1-2.3 1.8-3.5 2.6-1.3.9-2.5 1.6-3.7 2.1-1.5.6-2.9 1.3-4.2 1.3-1.9 0-3.4-.8-4-1.8-.7-1.2-.2-2.9 1-5.1.2-.4 0-.8.4-.9 1.1.4 2.4.6 3.8.6 1.2 0 2.4-.3 3.8-.7 1.2-.3 2.4-.7 3.6-1.4 1-.6 2-1.5 3-2.5.8-.9 1.4-2 2.1-3.2.4-.7.5-.7 1-1.4.7-1.2 1.1-2.3 1.3-3.4.2-1.3.3-2.6-.3-3.6s-1.6-1.6-2.7-2.2c-1-.5-2.1-.9-3.4-.9-1.7 0-3.3.4-4.7.9-1.5.5-3 1.2-4.2 2.3-1.1 1-2.3 2.3-3.1 3.7l-2.2 3.6c-1.1 1.8-1.1 1.8-2.2 3.5s-1 1.8-2.1 3.6c-.9 1.4-1.2 2.9-1.4 4.3-.2 1.6-.1 3.1.6 4.5.7 1.3 2.1 2.1 3.6 2.8 1.3.6 2.7 1.1 4.4 1.1 1.5 0 3-.4 4.4-.8 1.5-.4 2.8-1 4.2-1.7s2.6-1.5 3.8-2.4c1.3-.9 2.5-1.9 3.5-2.9 1.2-1.1 2.4-2.2 3.3-3.1l.1.1c.1-.1 0-.1.1-.2.9-1 1.5-2.1 2.4-3.1s1.8-1.9 2.6-2.9c.9-1.1 1.6-2.2 2.3-3.1.2-.3.4-.5.6-.7-.5 1.8-.9 3.9-1.2 5.9-.2 1.4-.2 2.7-.5 4-.3 1.5-.6 2.8-1.2 3.8-.7 1.2-1.9 1.9-3.4 1.9-1.9 0-2.8-1.8-2.8-1.9s.1-.3 0-.3c-2.2.9-2.1 1.1-4.2 2.3-.1 0 0-.1 0 0 0 0 .5 2.3 2.6 3.8 1 .7 2.5 1.3 4.5 1.3h1.6c.1 0 0-.4.1-.4s.1 0 .2-.1c1.3-.2 2.6-.3 3.9-.7 1.2-.4 2.4-1.1 3.6-1.7 1.2-.7 2.3-1.3 3.4-2 0 .9.2 1.6.6 2.3.9 1.6 2.7 2.6 5.1 2.6 1.1 0 2.3-.3 3.6-.8 1-.4 2-1.2 3.1-1.9.9-.6 2-1.2 3.1-2 0 .7.1 1.5.4 2.1.9 1.6 2.9 2.5 5.3 2.5 1.5 0 3.2-.5 5.1-1.5.7.8-.1 1.2-1 1.9-1.6.5-3.2.7-4.5 1.2-1.6.6-3 1.3-4.2 2-1.5.9-2.7 1.9-3.6 2.9-1.1 1.3-1.6 2.7-1.6 4.2 0 1.2.2 2.3.8 3.1.6.8 1.7 1.2 2.9 1.5.6.2 1.2.1 1.9.1 1.6 0 3.4-.1 5-1.1 1.3-.8 2.3-2.3 3.3-4 1.2-1.9 1.2-1.9 2.4-3.9s1-2.1 2.4-3.8c1.2-.4 2.4-.9 3.7-1.5 1.2-.5 2.4-.9 3.6-1.6 1.1-.6 2.3-1.3 3.4-2.1.2.9-.5.8-1 1.6-.1.2-.5.5-.3.5 1.7.2 1.7-.2 3.5-.2s2 1.1 3.4.1c1.9-1.3 1.3-1.9 2.5-3.9s1.1-2.1 2.3-4.1 1.1-2.1 2.3-4c1.2-2 1.3-1.9 2.5-3.9 1.2-1.4 2.1-2.7 3.1-3.7 1.4-1.4 2.7-2.3 3.8-3.1 2.3-1.7 3.7-2.2 4.3-1.7.5.4.5 1.5-.3 2.8-1 1.7-1.3 1.5-2.3 3.2l-2 3.4c-1 1.7-.9 1.8-1.9 3.4l-2 3.4c-.6 1.1-1.2 2-1.3 3-.2 1.2.1 2.2.7 3.2.9 1.6 2.6 2.7 5 2.7 1.2 0 2.5-.4 3.9-.9 1.1-.5 2.3-1 3.6-1.9 1-.7 2-1.6 3.1-2.5.9-.8 1.8-1.8 2.8-2.8.9-.9 1.8-1.9 2.8-2.9l.2.2c.1-.1 0-.1.1-.2.9-1 1.6-2.1 2.4-3.1.9-1 1.8-1.9 2.6-2.9.9-1.1 1.7-2.1 2.4-3 .2-.3.3-.5.5-.8-.5 1.8-.8 3.9-1.1 5.9-.2 1.4-.3 2.8-.5 4-.3 1.5-.8 2.8-1.4 3.8-.7 1.2-1.8 2.1-3.3 2.1-1.9 0-2.8-2-2.9-2.1 0-.1.1-.5 0-.5-2.2.9-2.1 1.1-4.3 2.3-.1 0 .1.1.1.2 0 0 .5 2.3 2.6 3.8 1 .7 2.5 1.2 4.4 1.2.6 0 1-.2 1.6-.2.1 0 .1.2.2.2s.2.1.2.1c1.4-.2 2.7-.9 4-1.4s2.6-1 3.8-1.7 2.3-1.6 3.4-2.4c1.2-.9 2.3-1.8 3.2-2.7 1.2-1.1 2.3-1.9 3.1-2.8-.3-.6-.2-.6-.2-.7zM783 328.5c.5 0 .9.1 1.2.3 1.2.7 1.4 2.1.3 3.9-1.2 2-1.3 1.9-2.5 3.9s-1 2.1-2.2 4c-.9 1.3-1.9 2.5-2.8 3.6-1.1 1.3-2.1 2.4-3.2 3.2-1.5 1.1-2.9 1.6-4.1 1.6-.4 0-.8-.1-1-.5-.3-.5-.1-1.2.5-2.3 1.1-1.8 1-1.8 2.1-3.6l2.2-3.6c1.1-1.8 1.2-1.8 2.2-3.6 1.1-1.8.9-1.9 2-3.7 1.6-2.5 3.8-3.2 5.3-3.2zm-68.4 9.7c.4-1.8.9-1.5 1.9-3.1s.8-1.7 1.7-3.3c.8-1.3 1.8-2.2 2.7-2.8 1.5-1 2.9-1.3 3.7-.9 1.1.6.9 2.5-.4 4.7-.4.7-.4.8-.8 1.5-1.2 1.9-2.6 2.9-3.8 3.5-2.1.9-3.9.7-5 .4zm49.9 25.4c-.4-.1-.5-.3-.5-.8 0-1 .5-2 1.9-2.9.8-.6 1.9-1.1 3.3-1.7-.7 2.3-1 2.2-2.3 4.3-.8 1.1-1.8 1.3-2.4 1.1zM849.8 346.1c-2.1 0-3.7 1.6-3.7 3.5 0 2 1.6 3.5 3.7 3.5s3.7-1.5 3.7-3.5c0-1.9-1.7-3.5-3.7-3.5zM518.5 388.3c1.6 1.7 2.4 0 4.7 0h4.7c2.3 0 2.6 1 4.7 0 1.6-.7 3-1.8 1.8-3-1.6-1.7-2.4 0-4.7 0H525c-2.4 0-2.4-.5-4.7 0-1.9.5-3 1.8-1.8 3zM572.5 368c-.5-1.3-1.8-2-3.5-2-1.5 0-2.7.4-3.7 1.1s-1.7 1.9-2.2 3.1c-.5 1.1-.9 2.4-1.1 3.7-.2 1.2-.4 2.5-.5 3.8-1.1 1.5-1.3 1.3-2.6 2.5s-.9 1.9-2.7 2.5c-1.4-1.2-3.3-1.9-5.2-1.9-1.7 0-3.2.4-4.6 1-1.4.7-2.6 1.7-3.6 3-.9 1.3-1.4 2.8-1.6 4.3-.2 1.5 0 3.1.5 4.6-1.9.3-3.7-.1-5.1-1-.1-.1-.1-.2-.2-.1-.8.8-.8.8-1.5 1.8-.1.1.1.1.2.1 1.1.9 2.4 1.5 3.8 1.8 1.3.3 2.7.3 4.2 0 1.1 1.4 2.5 2.4 4.2 3.1 1.5.6 3.3.9 5.2.9 1.6 0 3.2-.2 4.6-.8 1.4-.6 2.8-1.4 3.9-2.5s1.9-2.4 2.6-3.8c.6-1.3 1.1-2.8 1.4-4.4.3-1.4.4-3 .4-4.6 0-2.6 0-4.6.1-6.2 1.9-2.4 2.3-2.1 4.5-4.2.9-.8 1.6-1.8 2-2.6.7-1.1.9-2.2.5-3.2zm-4.1 1.4c.2 0 .5.1.6.3.2.4-.2 1.4-1.8 2.8-.5.5-.9 1.7-1.1 1 .5-2.8 1.3-4.1 2.3-4.1zm-13.9 22c-.1.1-.3.1-.2.2.9 1.1.9 1.1 2 1.9.1.1.1-.1.2-.2 1.4-1.1 2.2-2.4 2.4-3.8.3-1.5 0-3.1-.7-4.4 1.2-2 1.1-2.5 3.3-3.1 1.1-.3 0 1.1 0 2.2 0 1.6-.1 3-.4 4.3-.3 1.6-.8 2.9-1.4 4.1-.8 1.4-1.7 2.5-2.9 3.2s-2.6 1.2-4.1 1.2c-2.4 0-4.4-.7-5.7-2.1 1.1-.6 2.2-1.4 3.2-2.3 1.4-1.3 1.4-1.4 2.8-2.7s1-2 2.9-2.7c.4 1.4-.1 2.9-1.4 4.2zm-.4-6.6c-1.2 1.8-1.6 1.5-3.2 3l-3.2 3c-.7.6-1.5 1.3-2.3 1.8-.7-2-.4-4.3.8-6 1.1-1.6 2.9-2.5 5-2.5.9-.2 2 .1 2.9.7zM581.6 374.2c0-1.4-1.1-2.5-2.6-2.5-1.4 0-2.5 1.1-2.5 2.5s1.1 2.4 2.5 2.4c1.5 0 2.6-1 2.6-2.4zM628.1 389.8c0-.1-.1-.1-.1-.2-.3-.5-1-1.2-1.6-1.5-.1 0-.2-.1-.2-.1-.2.2-.2.2-.4.5-.8.9-1.7 1.8-2.6 2.5-1 .8-2 1.6-3 2.1-1.3.7-2.5 1.1-3.5 1.1-1.2 0-2-.5-2.4-1.1-.4-.7-.2-1.7.6-3 .1-.2 0-.5.2-.6 1.1.4 2.5.5 4 .2 1.2-.2 2.5-.6 3.7-1.6 1-.7 1.8-1.8 2.6-3.1.3-.5.4-.4.7-.9 1-1.7 1.2-3.3.5-4.6-.7-1.2-2.2-1.9-3.9-1.9-1.6 0-3.1.4-4.4 1.2-1.3.7-2.3 1.8-3.2 3.2-1 1.6-.9 1.6-1.8 3.1s-1 1.6-1.9 3.1c-.1.1-.2 0-.3.2-.8.9-1.6 1.9-2.5 2.6-1 .8-2.1 1.4-3.1 1.9-1.3.7-2.4 1.1-3.4 1.1-1.2 0-2-.5-2.4-1.1-.4-.7-.2-1.7.6-3l2-3.4c1-1.7.9-1.7 2-3.4 1.3-2.1 3.1-2.6 3.8-2.2.6.4.6 1.4-.2 2.8-.4.7-1.6 1-.9 1.4 1.7.8 2 .3 3.8-.1.6-.1.4-.5.7-1 1-1.7 1.1-3.3.4-4.5-.7-1.2-2.1-2-3.8-2-1.6 0-3.1.5-4.4 1.2-1.3.7-2.4 1.8-3.3 3.3-1 1.6-.9 1.6-1.8 3.2-1 1.6-1 1.5-2 3.1-.1.1-.1.2-.2.3-1.2 1.3-2.2 2.5-3.2 3.4-1.7 1.5-3.1 2.2-4 2.2-.2 0-.5 0-.6-.2-.1-.3 0-.8.4-1.4 1-1.6.9-1.6 1.9-3.2s1-1.5 2-3.1.9-1.6 1.8-3.2c.8-1.4 1-2.8.4-3.8-.5-.9-1.6-1.5-2.8-1.5-1.4 0-2.9.7-4.4 1.9-.8-.3 1.7-1.2.9-1.5-2.1-.8-2.5-1-4.5.1-1.8.9-1.1 1.7-2.1 3.4s-1 1.8-2 3.5-1 1.7-2.1 3.4c-.1.2-.3 0-.4.2-1.2 1.3-2.2 2.5-3.2 3.3-1.7 1.5-3 2.3-3.9 2.3-.2 0-.6-.1-.7-.3-.1-.3.1-.8.5-1.4 1.1-1.8 1-1.9 2.1-3.7 1.1-1.8 1.1-1.8 2.1-3.6l2.2-3.6c1.1-1.8 3.4-1.9 2.2-3.6-1.2-1.9-2.6-1-4.6 0-1.7.9-1 1.7-2 3.3-1 1.6-1 1.7-2 3.3-1 1.7-1.1 1.6-2.1 3.3s-1 1.6-2 3.3c-.9 1.5-1 3-.3 4.1.6 1 1.8 1.6 3.3 1.6 1.3 0 2.7-.4 4.2-1.3.6.1-1.3.8-.6 1 2.2.6 2.6 1.2 4.6.1 1.7-.9 1-1.7 2-3.4l2-3.4c1-1.7 1-1.7 2.1-3.3 1.2-1.4 2.2-2.5 3.1-3.3 2.1-1.9 3.4-2.4 3.9-2.1.2.2.2.8-.3 1.6l-2.6 4.2-2.6 4.2c-.9 1.5-1 3-.4 4.1.6 1 1.7 1.6 3.3 1.6 1.2 0 2.5-.4 3.9-1.3 1-.6 2.2-1.5 3.3-2.5.1.5.3.9.5 1.3.9 1.6 2.7 2.5 5.1 2.5 1.7 0 3.4-.3 4.9-1.1 1.6-.7 3-1.8 4.2-2.8.1.5.2 1 .5 1.4.9 1.6 2.8 2.4 5.1 2.4 1.6 0 3.2-.4 4.7-1.1s2.9-1.6 4.1-2.5c1.4-1.1 2.6-2.4 3.5-3.4.2-.2.3-.1.3-.2zm-5.4-8.6c.6.4.5 1.4-.3 2.7-.3.5-.3.5-.6.9-1.8 2.9-4 2.9-5.2 2.5.6-2.2 1.1-2 2.3-3.9 1.4-2.2 3.1-2.7 3.8-2.2zM629.4 392.3c-1.4 0-2.4 1-2.4 2.3s1.1 2.3 2.4 2.3c1.4 0 2.5-1 2.5-2.3s-1.1-2.3-2.5-2.3zM662.7 385.7c.7-1.1 1.1-2.6 1-3.9-.1-1.2-.7-2.4-2.1-3.3-1.1-.6-2.4-.9-3.8-.8-1.2.1-2.5.5-3.7 1.3-1 .7-1.9 1.7-2.6 2.9-.9 1.4-2.9 1.6-1.7 2.8 1.6 1.6 2.4.7 4.6 0 1-.3.6-.9 1.2-1.8 1.1-1.7 2.3-2.4 3.1-2.4h.1c.5 0 .8.3 1 .6.3.7.2 1.7-.5 2.8-.8 1.4-1.7 2.6-2.6 3.6-1.1 1.2-2.2 2.1-3.4 2.8-1.2.8-2.5 1.5-3.9 2-1.3.5-2.7.8-4.2 1.2h-.1c-.9 1.4-3 1.7-1.8 2.9 1.8 1.7 2.4 0 4.8 0s2.4.1 4.8.1 2.6.9 4.8 0c1.6-.7 3.2-1.9 1.8-2.9-2.5-1.7-3 .2-6 0 1.1-.4 2.3-1.1 3.6-2 1.1-.7 2.1-1.6 3.2-2.7.8-.8 1.7-1.9 2.4-3.2zM680.5 379.8c-.8-1.4-2.4-2.3-4.2-2.3s-3.3.5-4.6 1.4c-1.2.8-2.2 2-3.3 3.7l-1.8 3-1.8 3c-.7 1.1-1.1 2.1-1.3 3.1-.3 1.2-.1 2.3.4 3.3.7 1.4 2.3 2.2 4.1 2.2h.2c1.4 0 3-.4 4.6-1.4 1.2-.8 2.3-2 3.3-3.6s1-1.6 2-3.3 1-1.6 2-3.3c1.1-2 1.3-4.1.4-5.8zm-4 4.1c-1.3 2.1-1.3 2.1-2.5 4.1s-1.2 2.1-2.5 4.2c-1 1.6-2.8 2.2-3.7 1.6-.7-.4-.7-1.5.1-2.8 1.5-2.5 1.5-2.5 3-4.9.9-1.5 1-1.5 1.9-3.1 1.4-2.2 3-2.9 3.9-2.4.7.4.9 1.6-.2 3.3zM693.9 380.9c.2-2-.8-1.9-1.7-3.7-.1-.1-.1.1-.2.2-1.1.9-2.2 1.5-3.4 2s-2.4.9-3.7 1.3c-.4.1-.8-.2-.8.3.1 1.5.4 1.4 1 2.8 0 .1.1 0 .2 0 1.4-.4 2.5-.8 3.5-1.2-.8 2-1.1 1.8-2.2 3.6s-1.1 1.8-2.2 3.7c-1.1 1.8-.4 2.5-2.2 3.7-1.4.9-1.9-.9-3.3 0-1.5.9-2.7 1.5-1.8 3 .9 1.6 1.8 0 3.6 0h3.6c1.8 0 2.1.9 3.6 0s2.7-1.5 1.8-3c-.8-1.5-3.1 1.7-3.5 0-.5-2.4 1.3-2.1 2.5-4.2 1.3-2.1 1-2.3 2.6-4.2 1.6-2 2.3-1.8 2.6-4.3zM710.3 381.4c1.7-1 2.8-1.6 2-3.4-.7-1.6-1.8 0-3.6 0h-3.6c-1.8 0-2-.9-3.6 0s-.9 1.6-1.8 3.1-1 1.5-1.9 3-1.8 1.3-1.8 3c0 1.2.9.8 1.8 1.6.2.2.1.4.4.5.1 0 .1-.1.2-.2 1.3-1.5 2.6-1.6 3.3-1.1s1 1.8 0 3.4c-1.6 2.6-1.6 2.6-3.1 5.2-1 1.6-2.4 2.3-3.5 2.3-.5 0-1-.2-1.2-.6-.3-.5-.1-1.3.5-2.3.8-1.4 2.8-1.7 1.7-2.9-1.6-1.6-2.3-.6-4.5 0-.9.3-.4.8-.9 1.6-.8 1.3-1 2.5-.9 3.5.2 1.3 1 2.3 2 2.9s2.1.8 3.2.8c1.5 0 2.9-.5 4.2-1.3s2.3-1.9 3.1-3.2c1.3-2.3 1.4-2.3 2.7-4.5 1.2-2 1.4-4.1.4-5.8-.8-1.4-2.4-2.2-4.2-2.2h-.2c1.1-1.8.4-2.5 2.1-3.6 1.4-.9 1.7-.3 3.4 0 2.1.5 2.4 1.1 3.8.2zM711.8 388.4c1.6 1.7 2.4 0 4.7 0h4.7c2.3 0 2.6 1 4.7 0 1.6-.7 3.1-1.8 1.8-3-1.6-1.7-2.4 0-4.7 0h-4.7c-2.4 0-2.4-.5-4.7 0-1.9.4-3 1.7-1.8 3z"/><g><g fill="#F8FCFB"><path d="M39.5 107c-2.7-2.5-5.9-5.2-9.8-8.4-3.5-2.9-6.5-6.1-8.8-9.4-2.2-3-3.4-6.2-3.6-9.3-.2-2.8 1.3-5.7 4.5-8.8 1.5-1.2 3.5-2.2 5.9-3 2.6-.8 5.3-1.3 8.3-1.4 5-.2 8.8.8 11.1 2.8 2.6 2.3 4.3 4.7 5.2 7.4l.1.1c1.3 3 1.8 6.9 1.5 11.4l-.2 3.4 3.4-.2c2.3-.1 4.6-.2 6.8-.4l2.8-.2V56.7l-3.2.2c-2.3.1-4.5.3-6.8.4l-2.5.1-.3 2.4c-.1.5-.1.8-.2 1.1-.4-.1-1.1-.2-2-.6-1.9-.7-4-1.5-6.6-2.4-2.9-1.1-6.1-1.5-9.5-1.4-10 .3-17.3 2-22.3 5.3-5.3 3.3-9 7.8-11.4 13.6l-.1.2C.6 79.3 0 83.3 0 87.5s.9 8.6 2.6 13c1.7 4.3 4.3 8.9 7.8 13.5s8.2 9.2 14 13.7c3.1 2.7 6.7 5.7 10.7 9 4.1 3.3 7.6 6.9 10.5 10.6 2.7 3.4 4.4 7 5 10.7.5 3.2-.9 6.3-4.1 9.4-1.5 1.3-3.6 2.5-6.1 3.5-2.5.9-4.8 1.4-6.8 1.4h-.2c-3.2 0-5.9-.4-8-1.1-2.1-.7-3.8-1.6-5.2-2.6-1.3-1-2.4-2.2-3.2-3.5-.9-1.4-1.6-2.8-2.2-4.2-.6-1.7-1-3.5-1.2-5.4-.2-1.8-.1-3.7.3-5.8l.7-3.6H1.3V181H13.4l.2-2.8c0-.3.1-.5.1-.7.6.1 1.6.2 3.1.7 2.1.7 4.5 1.4 7.2 2.3 2.5.8 5.1 1.2 7.9 1.2.7 0 1.3 0 2-.1 5.3-.3 9.9-1.1 13.8-2.5 3.9-1.4 7.2-3.2 9.9-5.4s4.9-4.6 6.6-7.3c1.6-2.6 3-5.3 4-8l.1-.3c2.3-8.6.8-17.2-4.6-25.6-4.9-7.9-12.9-16.2-24.2-25.5zM116.5 174.7v-11.3l-4.1 1.5c-.6.2-1 .3-1.4.2l-.3-.1s-.1-.1-.2-.1c0-.1-.1-.4-.1-1.2v-39.6c3.2-.3 6.5-.6 9.7-.9 6.2-.6 11.9-1.9 16.7-3.8 4.9-1.9 9.1-4.3 12.4-7.2 3.4-2.9 5.9-6.1 7.7-9.5 1.7-3.4 2.6-6.9 2.6-10.2.2-2.6.2-5.5.2-8.8 0-3.3-.1-6.3-.2-8.9 0-3.5-.9-6.8-2.7-9.9-1.8-3-4.5-5.7-7.9-7.8-3.4-2.1-7.6-3.6-12.6-4.5-4.8-.8-10.5-.9-16.8-.3-12.1 1.2-24.1 2.2-35.7 3.1l-2.8.2v10.5l3.7-.9c.9-.2 1.4-.2 1.5-.2h.2c.3.1.7.3 1.1.6 0 .1.1.4.1 1.1v98.5c0 .7-.1 1.1-.3 1.2-.6.5-.9.6-1 .6l-.5.1-.3.2c-.1 0-.4 0-1-.1l-3.5-.6v11l3.2-.2c9.6-.7 19.6-1.5 29.5-2.5l2.8-.2zm18.4-106.6c1 1.4 1.5 3.1 1.5 5.3v24.5c0 2.3-.5 4.3-1.6 5.9-1.2 1.8-2.7 3.5-4.3 4.8-1.6 1.3-3.3 2.3-5 2.9-1.8.7-3.3 1-4.5 1.2-3.5.4-7.1.7-10.6 1V63.3c3.7-.3 7.5-.7 11.2-1.1 1.1-.1 2.5 0 4.2.5 1.8.4 3.5 1.1 5.1 2 1.6.7 2.9 1.9 4 3.4zM243.6 148.2c2.3-2.7 4.1-5.6 5.3-8.8 1.1-3 1.9-6.7 2.4-10.8.4-4 .6-8.7.6-14V96.3c0-9.4-.1-17.3-.4-23.5-.2-6.3-1-11.6-2.1-15.7-.6-4-2.6-7.4-5.8-10.1-3-2.5-6.6-4.3-10.7-5.5-3-.8-6.2-1.3-9.7-1.5-3.4-.2-6.8 0-10.1.5-6.7 1-13.2 3.3-19.6 6.8-4 2.3-7.5 5.1-10.3 8.4-2.9 3.4-4.8 7.1-5.5 11.1-1.3 4.5-2.1 10-2.3 16.4-.2 6.2-.2 14.1-.2 23.6v18.3c0 5.3.2 9.9.6 13.8.4 4.1 1.2 7.5 2.4 10.3 1.2 2.9 3.1 5.5 5.6 7.5 3.6 3.1 8.3 5.3 14 6.3 3 .6 6 .8 9 .8 2.4 0 4.8-.2 7.2-.5 5.5-.8 10.9-2.5 16.2-5.1 5.4-2.6 9.9-6 13.4-10zm-45.5-79.6c0-5.9 1.5-10.2 4.4-12.8 3.1-2.8 6.9-4.6 11.6-5.2 1.3-.2 2.4-.3 3.6-.3 2.9 0 5.4.6 7.6 1.9 2.6 1.6 3.9 5.2 3.9 10.9v16.3c0 6.3.1 12.9.2 19.5-.2 6.8-.2 13.4-.2 19.8v16.4c0 6-1.3 10.5-3.7 13.2-2.5 2.8-6.6 4.6-12 5.4-5.3.8-9.2.2-11.7-1.7-2.4-1.8-3.6-5.7-3.6-11.5V68.6zM334.2 132.4c2.3-2.7 4.1-5.7 5.3-8.8 1.1-3.1 1.9-6.7 2.4-10.9.4-4 .6-8.7.6-14V80.4c0-9.4-.1-17.3-.4-23.5-.2-6.3-1-11.5-2.1-15.6-.6-4-2.6-7.4-5.8-10-3-2.4-6.6-4.2-10.8-5.2-3-.7-6.2-1.2-9.7-1.2-3.4-.1-6.8.2-10.1.8-6.7 1.2-13.2 3.7-19.5 7.4-4 2.4-7.4 5.4-10.2 8.7-2.9 3.4-4.7 7.2-5.5 11.2-1.3 4.5-2.1 10.1-2.3 16.5-.2 6.2-.2 14.1-.2 23.6v18.3c0 5.3.2 9.9.6 13.8.4 4.1 1.2 7.5 2.4 10.2 1.2 2.9 3.1 5.4 5.6 7.4 3.7 3 8.4 5 14 5.9 2.5.4 5 .6 7.6.6 2.9 0 5.8-.3 8.6-.8 5.5-1 10.9-2.8 16.2-5.6 5.4-2.9 9.9-6.4 13.3-10.5zm-18.3.6c-2.5 2.9-6.6 4.8-12 5.8-5.3.9-9.2.5-11.7-1.3-2.3-1.7-3.5-5.5-3.5-11.3v-72c0-5.9 1.5-10.3 4.4-13 3.2-3 7-4.8 11.6-5.6 1.4-.3 2.8-.4 4-.4 2.7 0 5.1.6 7.1 1.7 2.6 1.5 3.9 5.1 3.9 10.7v16.3c0 6.3.1 12.9.2 19.5-.2 6.8-.2 13.4-.2 19.8v16.4c0 6.1-1.3 10.6-3.8 13.4zM434.3 123.7l2.5-.4V13.6c0-.7.1-1.3.4-1.6.4-.5.8-.8 1.2-1 .5-.2 1.3-.4 2.6-.4l2.9-.1V0l-3.5.6c-7.1 1.3-14.3 2.6-21.4 3.9l-2.6.5v10.8l4-1.4c1.1-.4 1.8-.5 2.2-.5.2 0 .5.1.8.3 0 .1.1.3.1.7v76.6L386 12.9l-1-2.1-4 .8c-7.7 1.4-15.4 2.9-23.1 4.3l-2.5.5v10.8l4-1.4c1.1-.4 1.8-.5 2.2-.5.2 0 .5.1.8.3 0 .1.1.3.1.7v98.4c0 .4 0 1.1-.3 1.3-.5.5-1.1.9-1.5 1.1-.6.2-1.4.4-2.3.4h-2.9v10.8l3.5-.7c7.1-1.3 14.3-2.6 21.4-4l2.5-.5v-10.9l-4 1.3c-1.4.5-2.2.5-2.5.5-.1 0-.3-.1-.5-.2 0-.1-.1-.4-.1-.7v-71l3.8 8c10.3 21.9 20.6 43.7 30.9 65.6l1 2.1 2.3-.4c6.8-1.2 13.7-2.4 20.5-3.7zM531.2 83.7c4.1-.6 8.2-1.3 12.3-1.9l-3.2 8.8c-1.8 4.9-1.9 8.8-.2 10.9 1.2 1.5 3.2 2 5.9 1.6 1.4-.2 2.9-.7 4.4-1.5 3.1-.5 6.2-.9 9.4-1.4h.2l.1-.2c5.1-8.6 10.1-17.2 15.1-25.7 10.6-13.3 16.5-15.9 17.7-15.1.5.3.4 1.7-.9 4-4.3 7.2-8.6 14.5-12.9 21.8-2.2 3.8-2.6 7.4-1 9.8 1.5 2.2 4.4 3.2 8.2 2.7 3.6-.5 7.6-2.5 12.1-6l.3.6c1.2 1.9 3.5 2.9 6.5 2.9.6 0 1.2 0 1.8-.1 3.7-.4 8.4-2.9 13.3-7 .9 3.3 4.3 4.9 9 4.4 6.9-.7 15.4-7 26.1-19.1l.2-.3-.2-.3c-.7-1.2-2.5-2.5-4-3l-.3-.1-.9 1c-8.4 9.6-14.6 14.6-18.2 15-.5 0-1.4.1-1.7-.4-.2-.3-.4-1.2 1-3.6 11.3-18.8 22.6-37.4 33.5-55.2l.5-.8-1 .1-9.9.9h-.3l-.1.2c-4.7 7.8-9.5 15.5-14.2 23.3-1.8-2-4.9-3.7-9-3.3-5.3.6-12.9 5-17.3 12.4-4.6 7.7-9.3 15.5-13.9 23.2-.4.7-.7 1.3-1 2-4.1 3.9-7.4 6-9.6 6.3-.5.1-1.3.1-1.7-.4-.2-.3-.4-1.2 1-3.6 4.8-8.1 9.5-16.2 14.3-24.3 2.1-3.6 2.4-6.8.9-9.1-1.3-2-3.8-3-6.8-2.6-3.7.5-7.4 2.4-11.3 5.9l2.3-3.9-1 .1c-3.3.4-6.6.9-9.9 1.3h-.2l-.1.2c-6.9 11.7-14.2 23.9-21.5 36.4-3.1 3-5.3 4.8-6.1 4.9-.4.1-.5 0-.5 0-.1-.2-.2-.8.8-3.6 6.5-18.1 13.1-36.1 19.6-54.1l.2-.6-.6-.1c-11.5-1.7-23.4 14.2-36.1 31.1-11.8 15.7-24 31.9-36.1 34.1-6 1.1-10.6-.3-13-3.7-3-4.3-2.2-11.4 2-18.5 4.8-8.2 12.4-13.4 19.1-13.1 3.7.1 6.7 2 8.3 5.2l.2.5.5-.2c2.6-1.3 5.3-2.7 7.9-4l.5-.2-.2-.4c-2.9-5.5-8.2-8.6-15-8.7-10.9-.2-23.1 7.2-29.4 18.1-5.9 10.2-6.7 20.3-2 27.1 3.3 4.8 9 7.4 16 7.4 1.7 0 3.5-.2 5.4-.5 14.4-2.7 25.6-15.4 34.7-27.6zm4.3-5.9c1.5-2.2 3.1-4.3 4.6-6.5 4.9-7 9.5-13.6 14.3-19-3 8-5.9 16-8.9 24-3.3.4-6.7.9-10 1.5zm87.6-17c2.5-4.1 6-6 8.5-6 .7 0 1.3.1 1.8.4 1.5.9 1.5 3-.1 5.7l-.5.8h.1c-2.3 3.9-4.7 7.7-7 11.6-6.4 10.1-12.5 14.2-15.9 14.6-.5.1-1.3.1-1.7-.4-.2-.3-.4-1.2 1-3.6l13.8-23.1zM655.5 78.8c-3.3.3-5.9 2.9-5.9 6 0 1.4.5 2.6 1.5 3.5 1 .9 2.3 1.4 3.8 1.4h.6c3.4-.3 6-2.9 6-5.9 0-1.4-.6-2.6-1.6-3.5-1.1-1.1-2.7-1.7-4.4-1.5zM153.9 193.5c-2.9-1.9-6.6-3.3-11.1-4.1-4.3-.8-9.5-.9-15.5-.2-12.7 1.3-25.3 2.5-37.4 3.4l-2.8.2v10.7l3.8-1c.9-.2 1.4-.2 1.6-.2.1 0 .3.1.6.3 0 .1.2.4.2 1.2v98c0 1.1-.2 1.4-.3 1.5-.3.3-.6.6-.9.7l-.3.1c-.2.1-.6.1-1 0l-3.6-.8v10.9l3.2-.2c7-.4 13.8-1 20.3-1.6 7.6-.7 15.4-1.5 23.2-2.3 3.3-.4 6.7-1.4 10.1-3.2 3.3-1.7 6.4-3.8 9.2-6.4 2.8-2.6 5.1-5.4 6.9-8.6 1.9-3.3 2.8-6.7 2.8-10.1V268c0-4.3-.9-8-2.6-11-1.7-2.9-3.8-5.3-6.2-7.1-1.3-1-2.7-1.8-4.1-2.4 1.6-1.1 3.1-2.3 4.6-3.8 2.2-2.2 4.2-4.9 5.8-8 1.7-3.2 2.5-6.9 2.5-11v-15.4c0-3.1-.7-6-2.2-8.8-1.5-2.6-3.8-5-6.8-7zm-13.6 9.6c1 1.2 1.4 2.8 1.4 5v18.3c0 1.5-.1 2.8-.2 4-.1 1.1-.3 2.1-.6 3.1-.2.3-.3.7-.3 1.1-.3.7-.6 1.4-.7 2.1 0 .2-.1.4-.3.7-1.5 2.7-3.4 4.5-5.9 5.6-2.8 1.2-5.8 2-9.1 2.3-2.9.3-5.8.6-8.6.9v-46.1c3.4-.3 6.9-.7 10.3-1 2.2 0 4.2 0 6 .1 1.6.1 3 .4 4.4.8 1.3.7 2.5 1.8 3.6 3.1zm-24.2 99.1v-45.9c3.1-.3 6.2-.6 9.2-.9 2.9-.3 5.9.1 8.7 1.1 2.6.9 4.5 2.6 6 5 0 0 0 .1.1.1.2.3.3.5.4.8.1.4.2.7.4 1.2.1.2.2.6.2.8.1.3.2.9.3 1.3.3 1.3.4 2.8.4 4.3v14.6c0 1-.1 2-.2 2.9-.1.9-.3 1.8-.6 2.7-1.1 3.5-3.2 6.1-6.5 7.9-3.6 2-7.4 3.2-11.4 3.6-2.4.1-4.7.3-7 .5zM176.9 183l-2.6.3v10.6l3.9-1.2c.8-.2 1.4-.3 1.8-.3.1.1.3.2.5.4 0 .1.1.5.1 1.1v98.5c0 1-.2 1.4-.3 1.5l-.7.7-.2.1c-.5.2-1.1.3-1.8.2l-3.4-.4v11l3.4-.5c9.5-1.3 19.4-2.6 29.5-4.1l2.6-.4v-11.2l-4.1 1.6c-.9.4-1.3.3-1.3.3l-.3-.1h-.2l-.2-.2c0-.1-.1-.4-.1-.9v-98.5c0-1.2.3-1.6.3-1.6.5-.6.9-.8 1.1-.9.3-.1.8-.2 1.9-.2l3.1.1v-10.4l-3.4.5c-10.1 1.4-20 2.8-29.6 4zM295.4 277.2c-1.3.2-1.9.1-2.1.1-.5-1.6-.7-3.7-.7-6.2v-26c0-4.6-1.7-10.1-8.6-13 3.9-2.5 7-5.5 9.3-8.7 3.6-5.1 5.4-10.1 5.4-14.9v-17.7c0-3.6-.9-6.9-2.7-9.9-1.8-3-4.5-5.5-8.1-7.3-3.4-1.8-7.6-3-12.6-3.6-4.9-.6-10.5-.4-16.8.7-12 2-23.7 3.9-34.8 5.6l-2.5.4V187l3.7-.9c.8-.2 1.5-.3 2-.4.1 0 .3.1.5.3 0 .1.1.4.1 1v98.7c0 .7-.1 1.3-.3 1.5-.3.4-.7.6-.9.7l-.3.1-.3.2c-.2.1-.6.2-1.1.1l-3.4-.5v11.1l3.5-.5c9.4-1.4 19.2-3 29.2-4.7l2.5-.4v-11.4l-4.2 1.9c-.6.3-1.1.4-1.4.3h-.3c0-.1-.1-.4-.1-1.1v-40c2.5-.4 4.9-.8 7.4-1.2 1.3-.1 2.9-.2 4.5-.2 1.4 0 2.8.2 4 .6.9.3 1.7.8 2.3 1.6.6.7.9 2 .9 3.7v26.7c.2 3.4 1.1 6.1 2.6 8.3 1.5 2.1 3.4 3.7 5.6 4.8 2.1 1 4.4 1.7 6.9 1.9 2.4.2 4.7.1 7.1-.3 2.8-.5 4.9-1.2 6.7-2 1.6-.8 3-1.6 4.1-2.4l1.2-.9v-10l-6.3 3.2c-.4 0-.9.2-2 .4zm-30.2-96.8c1.7.3 3.3.8 4.9 1.6 1.5.8 2.8 1.9 3.9 3.3 1 1.2 1.4 2.8 1.4 4.9v24.7c0 2.3-.5 4.2-1.6 6-1.2 2-2.6 3.6-4.2 5-1.7 1.4-3.4 2.5-5.2 3.3-1.8.8-3.3 1.3-4.5 1.5-3.2.5-6.4 1.1-9.7 1.6v-50.2c3.5-.6 7.1-1.2 10.6-1.8 1.2-.2 2.6-.1 4.4.1zM387.7 155.9c-3.4-1.8-7.7-3-12.7-3.5-4.9-.5-10.6-.2-17.1 1-14.7 2.7-26.5 4.9-37.2 6.8l-2.5.4v10.9l4-1.5c.7-.3 1.4-.4 1.9-.4.1 0 .2 0 .3.1 0 .1.1.4.1 1v98.4c0 .9-.2 1.4-.3 1.5-.3.4-.7.7-1.1.9-.6.2-1.2.4-1.9.3h-3v10.8l3.5-.6 18-3.3 6.7-1.2c2.2-.4 4.2-.8 6.1-1.2 1.7-.4 3.2-.7 4.4-.9l2.1-.4c6.4-1.2 12.1-3 16.9-5.3 4.9-2.3 9-5 12.3-8 3.3-3 5.9-6.3 7.6-9.7 1.7-3.5 2.6-7 2.6-10.4V173c0-3.5-.9-6.7-2.8-9.7-1.7-3-4.4-5.5-7.9-7.4zm-40.3 9.7l5.6-1c1.9-.3 4.1-.7 6.5-1 2.3-.3 4.5-.3 6.8-.1 2.1.2 4 .7 5.7 1.6 1.4.7 2.6 1.8 3.4 3.2.6 1.3.9 2.6.9 4.1V248c-.1 3.6-1.2 6.6-3.4 9-1.8 1.9-4 3.5-6.6 4.7-2.7 1.3-5.4 2.2-7.9 2.9-3.7.7-7.3 1.3-11 2v-101zM451.6 135.6c-1.5.3-3.4.9-4.5 1.2-5.2 1.4-10.3 3.5-15.2 6.5-4 2.4-7.5 5.4-10.3 8.8-3 3.5-4.9 7.3-5.6 11.4-1.2 4.5-1.9 10-2 16.4-.2 6.2-.2 14.1-.2 23.6v18.3c0 5.3.2 9.9.6 13.8.4 4 1.2 7.5 2.4 10.2 1.2 2.9 3.1 5.4 5.6 7.3 3.7 3 8.4 4.9 14 5.7 2.4.4 4.9.5 7.4.5 3 0 5.9-.3 8.8-.8 11.1-1.9 19.8-5.5 25.9-10.7 6.4-5.5 9.7-12.3 9.7-20.2v-11.8l-11.6 2v6.9c0 3.8-.6 7.1-1.7 9.8-1.1 2.7-2.7 4.9-4.8 6.8-2.2 1.9-4.8 3.5-7.9 4.7-3.2 1.3-6.9 2.3-10.9 3-4.5.8-8 .3-10.9-1.5-2.6-1.6-3.9-5.3-3.9-11 0-4.5 0-9.9-.1-16.4-.1-6.2-.1-12.6-.1-19.7 0-7 0-13.4.1-19.5.1-6.5.1-11.9.1-16.4 0-3 .4-5.5 1.2-7.6.8-2.1 1.9-3.8 3.4-5.2 1.5-1.5 3.1-2.7 5-3.5 2-1 4.2-1.8 6.7-2.4 3.2-.9 6.1-1.2 8.5-1 2.5.2 4.5.6 6.1 1.2 1.5.6 2.7 1.2 3.5 1.9 1.3 1.1 1.7 1.5 1.7 1.6 1 1.2 1.8 2.5 2.2 3.8.5 1.6.9 3.1 1.3 4.5.3 1.7.5 3.3.7 4.9l.3 3.2 11-1.9v-34.5l-7.9 1.4c-.4 0-.9 0-1.4.1l-2.5.4v2.5c0 .8-.2 1.4-1.3 2.1-.4.2-1 .3-1.7.3 0 0-4.3-.7-5.7-.9-2.5-.4-5.6-.7-9.6-.4-1.6 0-4.1.1-6.4.6zM585.8 226.4c-.9 0-1.6-.2-2.3-.5-.2-.1-.4-.6-.4-.8-.1-.5-.4-1.7-1.3-4.9-.8-2.9-1.8-6.7-3-11.8-1.2-4.8-2.6-10.4-4-16.5-1.4-6-3-12.4-4.6-19-3.7-15.1-8-32.1-12.7-51.2l-.7-2.6-2.7.4c-4.1.6-8.3 1.2-12.4 1.9l-1.9.3-.5 1.9c-4.9 18.5-9.7 37-14.6 55.5-1.8 7-3.6 13.9-5.3 20.5-1.8 6.7-3.4 12.6-4.8 17.9-1.4 5.2-2.5 9.5-3.3 12.7-.8 3.1-1.1 4.4-1.2 5-.3.9-.7 1.6-1.2 2-.8.6-1.7 1.1-2.6 1.4-1.2.4-2.4.6-3.5.6l-2.9.1v10.5l3.5-.6c8-1.3 15.8-2.6 23.4-3.8l2.5-.4v-10.6l-3.8 1.1c-1.2.4-2 .5-2.5.5 0-.1.1-.2.1-.3l.1-.4v-.2c.1-.4.3-1.6 1.3-5.5.8-3.3 1.9-7.7 3.3-13 9-1.4 17.9-2.8 26.4-4.1 1 4.5 1.9 8.3 2.7 11.3.9 3.5 1.2 4.7 1.2 5.1l.1.4c.1.4.1.7.1.8-.3.3-.6.5-.9.7-.8.3-1.8.4-2.8.4h-3v10.5l3.4-.5c12.3-1.8 24.3-3.5 35.7-5l2.6-.3v-10.6l-3.8 1c-1.6 0-2.7.1-3.7.1zm-53.2-31.3c1.3-5.3 2.6-10.6 4-15.9 1.4-5.4 2.7-10.6 4-15.6.3-1.1.6-2.1.8-3.2.2.7.4 1.4.5 2.1 1.2 4.6 2.4 9.4 3.6 14.4 1.2 5 2.4 9.9 3.7 14.8.9 3.7 1.8 7.2 2.5 10.6-7.1 1.1-14.4 2.2-21.8 3.3l2.7-10.5zM639.2 166.2l-2.7.3v10.4l3.3-.3c3.2-.3 6.3-.6 9.5-.9 2-.2 2.7.1 2.8.1.5.2.7.4.7.4V202c0 3-.1 5.7-.2 7.9-.1 2-.5 3.7-1.1 5.1-.5 1.3-1.3 2.3-2.5 3.1-1.2.9-3.1 1.8-5.5 2.6-2.1.5-4.4.9-6.8 1.1-4.5.5-8.2-.3-11.3-2.5-2.8-1.9-4.2-5.8-4.2-11.7V135c0-3.1.4-5.6 1.2-7.6.8-2 1.9-3.7 3.3-5 1.4-1.4 3.1-2.4 5.1-3.2 2.2-.8 4.5-1.5 6.9-1.9 3.2-.6 6-.7 8.5-.4 2.5.4 4.5 1 6.2 1.7 1.6.7 2.8 1.5 3.6 2.2 1.2 1.1 1.6 1.6 1.8 1.8 1.1 1.5 1.9 3 2.5 4.5.6 1.7 1.1 3.3 1.4 4.6v.1c.4 1.5.6 3.1.6 4.5v3.3l3.2-.3c1.9-.2 3.7-.3 5.6-.5l2.8-.2v-34.3l-3.2.3c-2 .2-4.1.3-6.1.5l-2.8.2V108.4c-.3.3-.7.6-1.1.8-.9.4-1.4.2-1.6.2l-.3-.1c-1.5-.3-3.4-.7-5.6-1.3-2.5-.7-5.7-1.1-9.6-1.3h-2.4c-2.2.3-6.7.8-9 1.3-1.4.3-4.2.9-5.6 1.3-3.2.9-6.4 2.3-9.4 3.9l-.1.1c-4 2.3-7.5 5-10.4 8.2-3.1 3.3-5.1 7.1-5.9 11.2-1.3 4.5-2.1 10.1-2.3 16.6-.2 6.3-.2 14.3-.2 23.9v18.6c0 5.3.3 10 .8 13.9.5 4 1.4 7.5 2.5 10.3 1.2 3 3.1 5.6 5.5 7.7 3.6 3.2 8.3 5.4 14 6.6 3.7.8 7.4 1.2 11.1 1.2 1.8 0 3.6-.1 5.3-.3 7.4-.6 14.1-2.3 19.8-4.9 3.4-1.1 5.1-1.3 5.9-1.2v2.6l3.2-.3c1.9-.2 3.9-.3 5.8-.5l2.8-.2v-52.1c0-.9.1-1.2.1-1.2.2-.3.4-.4.4-.4s.3-.1 1.2 0l3.3.4v-10.8l-3.2.2c-12.1 1.1-24.8 2.2-37.6 3.4zM740.8 111.2c2.5-.1 4.5.4 5.8 1.4 1.5 1.1 2.5 2.3 3.1 3.5.7 1.6 1.1 3.5 1.2 5.6l.2 2.8h12.1v-23h-3c-21.9.1-44.8.8-68.1 2.3l-2.8.2v10.5l3.7-.8c.8-.2 1.3-.2 1.4-.2H694.7c.3.1.6.2.9.5 0 .1.2.4.2 1.3v98.5c0 .9-.2 1.2-.2 1.3-.3.3-.5.5-.7.5l-.5.1-.3.2c-.1 0-.4 0-1-.1l-3.6-.7v11l3.2-.2c23.2-1.5 46-2.2 67.8-2.3h3v-23H751.4l-.2 2.8c-.1 2.1-.5 4-1.2 5.7-.6 1.2-1.6 2.3-3 3.4-1.4 1-3.4 1.5-6 1.5-7.3.2-14.8.4-22.3.7v-45.8c4.7-.2 9.5-.4 14.1-.5 1.9-.1 2.7.3 3.1.6.7.5 1.1 1 1.4 1.6l.2.3c.4.6.5 1.4.5 2.3v3.1l3.1-.1c1.9 0 3.7-.1 5.6-.1h3v-26h-3c-1.9 0-3.7.1-5.6.1l-2.9.1v2.9c0 1-.2 1.9-.7 2.7-.3.5-.7 1-1.5 1.5-.4.2-1.3.7-3.2.7-4.6.1-9.3.3-14 .5V112c7.2-.4 14.7-.6 22-.8z"/></g></g></svg>