<svg xmlns="http://www.w3.org/2000/svg" width="65.9" height="74.8" viewBox="0 0 65.9 74.8"><path fill="#A3ABB0" d="M32.9 0L0 19v38l30.7 17.7c-.3-.8-.5-1.6-.2-2.4.2-.6-.4-1.4-.6-2.3h1.4c-1-.6-2-1.2-1.7-2.6.1-.3.1-.6.1-.9-.1-.1-.2-.1-.3-.2-.3-.2-.7-.3-.7-.5 0-1.4-.4-2.5-1.8-3.3.7-.1 1.1-.2 1.6-.3-.5-.3-1.1-.6-1.5-1-.7-.6-1.3-1.3-1.9-1.9-1.3-1.2-2.9-2.3-4.1-3.6-.1-.1-.1-.2-.2-.3 2 .6 4.8 1.1 8.7 1.4h6.2c3.8-.3 6.6-.8 8.6-1.3l-.1.1C43 57 41.5 58 40.1 59.2c-.7.6-1.2 1.3-1.9 1.9-.5.4-1 .7-1.5 1 .5.1 1 .2 1.7.3-1.3.8-1.6 1.9-1.6 3.2 0 .1-.3.3-.7.5-.1 0-.2.1-.3.2 0 .3.1.6.1.9.3 1.4-.6 2-1.7 2.6h1.4c-.2.8-.8 1.7-.6 2.3.3.9.1 1.7-.2 2.4L65.9 57V19l-33-19zm0 16.2c-1.1 0-2-1.1-2-2.4s.9-2.4 2-2.4 2 1.1 2 2.4-.9 2.4-2 2.4zm1.8 2.7c1.2.2 3.7 1 6.2 3.8l.3.3c-1 .4-2.2.7-3.3 1-.9-2-1.9-3.7-3.2-5.1zm3.8 6.8c1.4-.3 2.7-.8 3.7-1.3 1.1 1.6 1.8 3.5 2.3 5.4-1.3.6-2.8 1.1-4.5 1.5-.4-1.9-.9-3.8-1.5-5.6zM45.3 47v1.5c-.5-.2-2-.6-4.1-1.1 0-1.4 0-3.4-.1-5.8 1.6-.4 3.1-.9 4.2-1.6v7zm0-8.9c-1.2.6-2.7 1.1-4.3 1.5-.1-2-.3-4.1-.7-6.2 1.8-.4 3.5-1 4.6-1.8.3 1.8.5 3.6.4 5.5v1zm4.9 1.3c-.1 3.3-.7 6.4-1.8 9.4V37.5c0-6.2-1.3-12.1-5-16.3-3.7-4.2-7.4-4.3-7.9-4.4-.4-.1-.2-.6-.1-1 .3-.6.5-1.2.5-1.9 0-2-1.3-3.6-2.9-3.6-1.6 0-2.9 1.6-2.9 3.6 0 .7.2 1.4.5 1.9.1.4.2.9-.1 1-.6.1-4.2.3-7.9 4.4-3.7 4.2-5.1 10.1-5 16.3s0 11.5 0 11.5v.5c-1.3-3.2-1.9-6.6-2-10.1-.4-8.5 1.3-16.6 5.7-24 2-3.3 4.2-6.3 7.6-8.2C30.3 6.4 31.6 6 33 6c1.4 0 2.7.4 4.1 1.2 3.4 1.9 5.7 4.9 7.6 8.2 4.1 7.4 5.8 15.4 5.5 24z"/></svg>