<svg xmlns="http://www.w3.org/2000/svg" width="135.1" height="147.7" viewBox="0 0 135.1 147.7"><path fill="#A9A9A9" d="M72.1 141.7c0 1.3-.5 2.4-1.4 3.3s-2 1.4-3.3 1.4-2.4-.5-3.3-1.4c-.9-.9-1.4-2-1.4-3.3s.5-2.4 1.4-3.3c.9-.9 2-1.4 3.3-1.4s2.4.5 3.3 1.4 1.4 2 1.4 3.3zM134.7 30.9c-.3-1.3-.9-2.4-1.7-3.3-.9-.9-1.9-1.5-3.2-1.9-3.3-1-6.5-.6-9.8.1-7.3 1.7-13.4 5.5-18.6 10.9-3.7 3.8-6.3 8.3-6.9 13.6-.2 1.6.1 3.2.2 4.7 0 .8-.1 1.6 0 2.3 0 .5.2 1 .3 1.6-.3-.3-.8-.5-1.2-.9.3 1.4-.1 2.3-1 3.1-.1.1 0 .4.1.7 0 .1 0 .2.1.3-.2.2-.4.3-.7.5-1.1.7-.9 1.6-.6 2.6-.2-.3-.5-.5-.9-.9-.4.7-.6 1.5-1.1 1.7-1.8.9-1.9 3-3.3 4.2-1.9 1.7-28.3 26-30.1 27.7-2.2 2.1-4.3 4.2-6.5 6.2-3.4 3.1-7 5.9-10.6 8.7-2.1 1.7-4.5 3.2-6.4 5.1-1.3 1.3-2.8 2.4-4.3 3.5-.4.3-.4.9-.7 1.5-.8-.3-1.1.2-1.3 1-.4 1.4-1.5 2.2-2.7 2.7-1.9.8-3.8 1.3-5.6 2.3-3 1.5-6.4 2.7-8.2 5.8-.8 1.5-1.9 3-1.8 4.9 0 .6-.1 1.2-.4 1.7-1 1.6-.8 3.1.1 4.5.1.1.2.2.3.4l.3.3c1.4.9 2.9 1.2 4.5.3.5-.3 1.2-.4 1.7-.3 1.9.2 3.5-.8 5-1.6 3.2-1.6 4.5-5 6.1-7.9 1-1.7 1.6-3.7 2.5-5.5.6-1.2 1.4-2.2 2.8-2.6.8-.2 1.4-.5 1.1-1.3.6-.2 1.2-.3 1.5-.6 1.2-1.4 2.3-2.8 3.7-4.1 2-1.9 3.6-4.1 5.4-6.2 3-3.4 6-6.9 9.2-10.2 2.1-2.1 4.2-4.2 6.4-6.2 1.9-1.8 27.9-26.6 29.7-28.4 1.3-1.3 3.4-1.3 4.4-3 .3-.5 1.1-.6 1.8-1l-.9-.9c1 .3 1.9.5 2.6-.5.2-.2.3-.4.5-.6.1 0 .2.1.3.1.3.1.6.2.7.1.8-.9 1.8-1.3 3.1-.9-.4-.5-.6-.9-.9-1.2.5.1 1 .3 1.5.3.8.1 1.5 0 2.3.1 1.6.1 3.2.5 4.7.4 5.4-.4 9.9-2.8 13.9-6.3 5.6-4.9 9.7-10.8 11.7-18.1 1.2-3 1.7-6.2.9-9.5z"/><path fill="#A9A9A9" d="M127.2 141.6c-.3-.5-.4-1.1-.4-1.7.2-1.9-.9-3.4-1.8-4.9-1.8-3.1-5.2-4.2-8.2-5.8-1.8-.9-3.8-1.5-5.6-2.3-1.2-.5-2.3-1.3-2.7-2.7-.2-.8-.5-1.4-1.3-1-.3-.6-.3-1.2-.7-1.5-1.5-1.1-2.9-2.2-4.3-3.5-2-1.9-4.3-3.4-6.4-5.1-3.6-2.9-7.2-5.7-10.6-8.7-2.2-2-4.4-4.1-6.5-6.2-1.8-1.8-28.2-26-30.1-27.7-1.3-1.2-1.5-3.4-3.3-4.2-.5-.2-.7-1.1-1.1-1.7l-.9.9c.2-1 .4-2-.6-2.6-.2-.1-.4-.3-.7-.5 0-.1 0-.2.1-.3.1-.3.2-.6.1-.7-.9-.8-1.4-1.7-1-3.1-.5.4-.9.6-1.2.9.1-.5.2-1 .3-1.6v-2.3c0-1.6.3-3.2.2-4.7-.6-5.4-3.2-9.8-6.9-13.6-5.2-5.4-11.2-9.2-18.6-10.9-3.3-.8-6.5-1.1-9.8-.1-1.3.4-2.4 1-3.2 1.9-.9.9-1.4 2-1.7 3.3-.8 3.3-.3 6.5.6 9.8 2 7.3 6.1 13.2 11.7 18.1 4 3.5 8.5 5.9 13.9 6.3 1.6.1 3.2-.2 4.7-.4.8-.1 1.6 0 2.3-.1l1.5-.3c-.3.4-.5.8-.9 1.2 1.3-.4 2.3 0 3.1.9.1.1.4 0 .7-.1.1 0 .2 0 .3-.1.2.2.3.4.5.6.7 1 1.6.8 2.6.5-.2.3-.5.5-.9.9.7.4 1.5.5 1.8 1 1 1.7 3.1 1.7 4.4 3 1.8 1.8 27.8 26.6 29.7 28.4 2.2 2 4.3 4.1 6.4 6.2 3.2 3.3 6.2 6.8 9.2 10.2 1.8 2.1 3.4 4.3 5.4 6.2 1.4 1.3 2.5 2.7 3.7 4.1.3.4.9.4 1.5.6-.3.8.3 1.1 1.1 1.3 1.4.3 2.2 1.4 2.8 2.6.9 1.8 1.5 3.8 2.5 5.5 1.7 2.9 2.9 6.3 6.1 7.9 1.5.8 3.1 1.8 5 1.6.6-.1 1.2 0 1.7.3 1.6.9 3.2.6 4.5-.3l.3-.3c.1-.1.2-.2.3-.4 1.2-1.7 1.4-3.3.4-4.8z"/><g><path fill="#A9A9A9" d="M70.4 33.2c5.8-.2 9.5-1.6 10-1.9.6-.4.7-2.2.3-2.7-.4-.5-.3-1-.3-1s0-3.7.1-8.2c0-4.4-1.1-8.6-4.3-11.6-3.2-3-6.3-3.1-6.8-3.2-.3-.1-.2-.5-.1-.7.3-.4.4-.9.4-1.4 0-1.4-1.1-2.5-2.5-2.6-1.4 0-2.5 1.1-2.5 2.5 0 .5.1 1 .4 1.4.1.3.2.7-.1.7-.5.1-3.6.2-6.8 3.1-3.2 2.9-4.4 7.1-4.4 11.5v8.2s.1.5-.3 1-.3 2.3.3 2.7c.5.3 3.9 1.8 9.5 2 1.6.2 5.1.3 7.1.2zM67.2.8c.9 0 1.7.8 1.7 1.7 0 1-.8 1.7-1.7 1.7-.9 0-1.7-.8-1.7-1.7 0-.9.8-1.7 1.7-1.7zm1.6 5.4c1.1.2 3.2.7 5.3 2.7.1.1.2.2.3.2-.9.3-1.9.5-2.9.7-.7-1.4-1.6-2.6-2.7-3.6zM72 11c1.2-.2 2.3-.5 3.2-.9.9 1.2 1.5 2.5 2 3.9-1.1.4-2.5.8-3.9 1-.4-1.4-.8-2.7-1.3-4zm5.8 15.2v1.1c-.4-.1-1.7-.5-3.5-.8v-4.1c1.4-.3 2.7-.6 3.6-1.1-.1 2.8-.1 4.9-.1 4.9zm0-6.4c-1 .4-2.3.8-3.7 1-.1-1.4-.3-2.9-.6-4.4 1.6-.3 3-.7 3.9-1.3.3 1.2.4 2.5.4 3.9v.8z"/></g></svg>